#!OML:ASF F:\VICON\USERDATA\INSTALL\rory3\rory3.ASF
:FULLY-SPECIFIED
:DEGREES
106
root 1.16525 17.7968 -16.6808 6.44427 -1.31871 0.0728666
lowerback 6.33327 -0.485199 -1.00393
upperback 0.833564 -0.651506 2.20247
thorax -2.65443 -0.305619 2.89288
lowerneck -19.5993 -3.84558 -9.08429
upperneck 13.2816 -3.71033 5.64063
head 7.57286 -1.70116 2.89053
rclavicle 1.70955e-014 1.59028e-015
rhumerus -30.8722 -7.32395 -80.7317
rradius 35.1938
rwrist 4.78516
rhand -11.7222 13.5069
rfingers 7.12502
rthumb 14.3247 -15.9789
lclavicle 1.70955e-014 1.59028e-015
lhumerus -28.1623 5.85146 87.0014
lradius 29.5272
lwrist -6.403
lhand -17.6042 26.6067
lfingers 7.12502
lthumb 8.65227 56.4094
rfemur -10.451 5.63688 20.4433
rtibia 21.7579
rfoot -11.021 -11.0359
rtoes -0.740477
lfemur -10.3771 -2.55409 -20.787
ltibia 21.2624
lfoot -13.075 4.86071
ltoes -0.357501
107
root 1.16591 17.7969 -16.6798 6.44813 -1.37638 0.000740508
lowerback 6.30372 -0.491958 -0.956882
upperback 0.878941 -0.657018 2.2356
thorax -2.59091 -0.30982 2.90017
lowerneck -19.5647 -3.83109 -9.10473
upperneck 13.2002 -3.68905 5.65905
head 7.53922 -1.69009 2.90245
rclavicle 7.25564e-015 -1.35174e-014
rhumerus -30.7647 -7.17844 -80.8034
rradius 35.1524
rwrist 4.5118
rhand -10.966 11.7982
rfingers 7.12502
rthumb 15.0533 -17.6345
lclavicle 7.25564e-015 -1.35174e-014
lhumerus -28.1007 5.80625 87.0387
lradius 29.5165
lwrist -6.00775
lhand -17.7552 26.4535
lfingers 7.12502
lthumb 8.50661 56.2621
rfemur -10.4468 5.76675 20.52
rtibia 21.7293
rfoot -11.0703 -11.1203
rtoes -0.810617
lfemur -10.3375 -2.62169 -20.7017
ltibia 21.2824
lfoot -13.0949 4.94542
ltoes 0.320867
108
root 1.16449 17.7944 -16.6782 6.45376 -1.37021 -0.100361
lowerback 6.31402 -0.499901 -0.906265
upperback 0.87756 -0.662758 2.28347
thorax -2.5978 -0.3129 2.92189
lowerneck -19.5454 -3.81607 -9.04039
upperneck 13.268 -3.67401 5.56855
head 7.55419 -1.68921 2.86407
rclavicle -3.97569e-016 6.36111e-015
rhumerus -30.8438 -7.07089 -80.8173
rradius 35.2389
rwrist 4.20477
rhand -10.0348 10.0348
rfingers 7.12502
rthumb 15.9501 -19.3285
lclavicle -3.97569e-016 6.36111e-015
lhumerus -28.1064 5.623 87.133
lradius 29.4251
lwrist -5.3571
lhand -18.6278 25.8777
lfingers 7.12502
lthumb 7.66439 55.7188
rfemur -10.4275 5.77636 20.6409
rtibia 21.7032
rfoot -11.1219 -11.1182
rtoes -0.745962
lfemur -10.3114 -2.61289 -20.5701
ltibia 21.2843
lfoot -13.1706 4.90939
ltoes 0.875808
109
root 1.16542 17.7954 -16.672 6.44412 -1.40018 -0.0831811
lowerback 6.44591 -0.48163 -0.930395
upperback 0.80433 -0.639046 2.27214
thorax -2.74835 -0.298583 2.9246
lowerneck -19.5234 -3.8381 -8.92622
upperneck 13.3675 -3.71844 5.44592
head 7.58214 -1.71746 2.7995
rclavicle -4.07509e-015 8.74653e-015
rhumerus -31.0445 -6.95956 -80.8252
rradius 35.3574
rwrist 3.94149
rhand -10.0581 10.3018
rfingers 7.12502
rthumb 15.9277 -19.0633
lclavicle -4.07509e-015 8.74653e-015
lhumerus -28.2027 5.54467 87.1091
lradius 29.4403
lwrist -5.68476
lhand -19.5812 27.9751
lfingers 7.12502
lthumb 6.74412 57.8477
rfemur -10.3784 5.7633 20.5988
rtibia 21.6753
rfoot -11.2028 -10.9895
rtoes -0.136088
lfemur -10.2924 -2.58137 -20.5937
ltibia 21.2923
lfoot -13.2089 4.89837
ltoes 0.974524
110
root 1.16758 17.7952 -16.6679 6.45924 -1.46347 -0.0588263
lowerback 6.51085 -0.442609 -0.952374
upperback 0.805387 -0.589039 2.25452
thorax -2.78639 -0.273105 2.91537
lowerneck -19.6315 -3.89991 -8.87983
upperneck 13.3752 -3.80152 5.42412
head 7.60769 -1.75515 2.77335
rclavicle -3.37934e-015 -5.56597e-015
rhumerus -31.0321 -6.8953 -80.8599
rradius 35.3935
rwrist 3.7077
rhand -10.1945 10.5176
rfingers 7.12502
rthumb 15.7964 -18.8579
lclavicle -3.37934e-015 -5.56597e-015
lhumerus -28.1083 5.65187 87.0179
lradius 29.4327
lwrist -6.67491
lhand -22.1128 34.7751
lfingers 7.12502
lthumb 4.29983 64.7114
rfemur -10.3771 5.84945 20.5315
rtibia 21.6478
rfoot -11.2458 -10.8828
rtoes 0.647194
lfemur -10.2976 -2.63704 -20.6349
ltibia 21.2982
lfoot -13.205 4.97796
ltoes 1.02126
111
root 1.16798 17.794 -16.667 6.51991 -1.46128 -0.084543
lowerback 6.4837 -0.442843 -0.960574
upperback 0.777713 -0.588827 2.28069
thorax -2.79946 -0.272405 2.94703
lowerneck -19.4458 -3.89735 -8.89989
upperneck 13.2108 -3.8046 5.4224
head 7.52269 -1.75911 2.77612
rclavicle 1.98785e-016 -1.19271e-014
rhumerus -31.0781 -6.81925 -80.8627
rradius 35.4333
rwrist 3.62393
rhand -10.3377 10.4932
rfingers 7.12502
rthumb 15.6584 -18.8931
lclavicle 1.98785e-016 -1.19271e-014
lhumerus -28.1143 5.42118 87.1428
lradius 29.2236
lwrist -5.80817
lhand -19.5055 26.833
lfingers 7.12502
lthumb 6.81718 56.7032
rfemur -10.4457 5.85856 20.5697
rtibia 21.6326
rfoot -11.1117 -10.9411
rtoes 0.0174941
lfemur -10.3597 -2.60961 -20.6125
ltibia 21.2984
lfoot -13.1732 5.0046
ltoes 0.647638
112
root 1.16808 17.793 -16.6668 6.60591 -1.43279 -0.107076
lowerback 6.45449 -0.46645 -0.960579
upperback 0.708789 -0.618736 2.30131
thorax -2.85235 -0.285989 2.97136
lowerneck -19.1754 -3.87522 -8.8928
upperneck 13.098 -3.79265 5.39027
head 7.43841 -1.75907 2.76719
rclavicle -1.59028e-014 5.56597e-015
rhumerus -31.238 -6.69458 -80.8753
rradius 35.5535
rwrist 3.50866
rhand -10.4468 10.8958
rfingers 7.12502
rthumb 15.5533 -18.4988
lclavicle -1.59028e-014 5.56597e-015
lhumerus -28.2541 5.12818 87.2672
lradius 29.191
lwrist -4.82383
lhand -19.3615 24.2693
lfingers 7.12502
lthumb 6.95618 54.1351
rfemur -10.5352 5.85226 20.6093
rtibia 21.6136
rfoot -11.0046 -11.0502
rtoes -0.62142
lfemur -10.4694 -2.58266 -20.576
ltibia 21.3261
lfoot -13.1833 4.95259
ltoes 0.705007
